<svg xmlns="http://www.w3.org/2000/svg" viewBox="0 0 148.06 29.81"><defs><style>.cls-1{fill:#e94e1b;}</style></defs><g id="Camada_2" data-name="Camada 2"><g id="Camada_3" data-name="Camada 3"><path class="cls-1" d="M80.47,11.84c.42.16.84.33,1.25.52a.14.14,0,0,0,.16,0h0A14.16,14.16,0,0,1,86,9.53a.12.12,0,0,0,.07-.07c0-.08.07-.16.11-.25,1.19-3,.25-6.36-.27-7.79a.7.7,0,0,0-1-.39c-1.36.69-4.36,2.48-5.55,5.5v.1a14.1,14.1,0,0,1,1,5.08A.13.13,0,0,0,80.47,11.84Z"/><path class="cls-1" d="M61.88,9.45a14.22,14.22,0,0,1,4.31,2.88h0a.12.12,0,0,0,.15,0c.41-.19.83-.36,1.26-.52a.14.14,0,0,0,.09-.13h0a14,14,0,0,1,.93-4.89.17.17,0,0,0,0-.1l-.1-.25c-1.29-3-4.33-4.67-5.71-5.32a.7.7,0,0,0-1,.42c-.48,1.45-1.33,4.83,0,7.81Z"/><path class="cls-1" d="M51.41,23.81h.1a14.1,14.1,0,0,1,5.08-1,.14.14,0,0,0,.13-.09c.16-.43.33-.85.52-1.26a.11.11,0,0,0,0-.15h0a14.16,14.16,0,0,1-2.8-4.11.12.12,0,0,0-.07-.07L54.09,17c-3-1.19-6.36-.24-7.79.28a.69.69,0,0,0-.39,1C46.6,19.62,48.39,22.62,51.41,23.81Z"/><path class="cls-1" d="M93.73,16.87a14.18,14.18,0,0,1-2.88,4.3h0a.15.15,0,0,0,0,.16c.19.41.36.83.52,1.25a.13.13,0,0,0,.13.09,14,14,0,0,1,4.89.93h.1l.25-.1c3-1.28,4.68-4.32,5.32-5.7a.71.71,0,0,0-.42-1c-1.44-.48-4.83-1.32-7.8,0Z"/><path class="cls-1" d="M68.54,11.39a18.39,18.39,0,0,1,11,0,.13.13,0,0,0,.17-.14A13.1,13.1,0,0,0,79,7.51,21.16,21.16,0,0,0,74.68.29.87.87,0,0,0,74,0a.89.89,0,0,0-.65.29A20.8,20.8,0,0,0,69,7.73a13.11,13.11,0,0,0-.6,3.52A.14.14,0,0,0,68.54,11.39Z"/><path class="cls-1" d="M57.46,20.47a.14.14,0,0,0,.22,0,18.57,18.57,0,0,1,7.77-7.78.13.13,0,0,0,0-.21,13,13,0,0,0-3.12-2.18,21.15,21.15,0,0,0-8.18-2h0a.88.88,0,0,0-.88.92,20.83,20.83,0,0,0,2.14,8.39A13.36,13.36,0,0,0,57.46,20.47Z"/><path class="cls-1" d="M56.27,23.34a13.6,13.6,0,0,0-3.75.68,21,21,0,0,0-7.1,4.24,1,1,0,0,0-.34.76H55.57a18.49,18.49,0,0,1,.83-5.5A.14.14,0,0,0,56.27,23.34Z"/><path class="cls-1" d="M102.64,28.26A20.7,20.7,0,0,0,95.32,24a13.18,13.18,0,0,0-3.53-.61.14.14,0,0,0-.13.18,18.49,18.49,0,0,1,.83,5.5H103A1,1,0,0,0,102.64,28.26Z"/><path class="cls-1" d="M82.58,12.45a.13.13,0,0,0,0,.21,18.57,18.57,0,0,1,7.77,7.78.14.14,0,0,0,.22,0,13.53,13.53,0,0,0,2.17-3.13,20.93,20.93,0,0,0,2-8.18.87.87,0,0,0-.87-.92h-.05a21,21,0,0,0-8.38,2.14A12.85,12.85,0,0,0,82.58,12.45Z"/><path class="cls-1" d="M75.62,27.11a2.06,2.06,0,0,0-2,1.16,1.93,1.93,0,0,0-.15.75h4.59A2.62,2.62,0,0,0,75.62,27.11Z"/><path class="cls-1" d="M74.25,22.68A6,6,0,0,0,69.79,29h1.78a3.83,3.83,0,0,1,2.86-3.71A4.56,4.56,0,0,1,80,28.56c0,.15.07.3.1.46h3.43A6.81,6.81,0,0,0,83,26.27,7.4,7.4,0,0,0,74.25,22.68Z"/><path class="cls-1" d="M73.76,20.8a9.64,9.64,0,0,1,4.74-.06,9.5,9.5,0,0,0-14,8V29h3.29A8,8,0,0,1,73.76,20.8Z"/><path class="cls-1" d="M74,12.24A16.77,16.77,0,0,0,57.26,29h5.81A11,11,0,1,1,85,29h5.82A16.78,16.78,0,0,0,74,12.24Z"/><polygon class="cls-1" points="148.06 29.02 129.56 29.41 111.05 29.63 74.03 29.82 37.02 29.63 18.51 29.41 0 29.02 18.51 28.62 37.02 28.4 74.03 28.22 111.05 28.4 129.56 28.63 148.06 29.02"/></g></g></svg>